<?xml version="1.0" encoding="UTF-8"?>
<svg xmlns="http://www.w3.org/2000/svg" viewBox="0 0 63.62 28.15">
  <defs>
    <style>
      .c {
        fill: #231f20;
      }

      .d {
        fill: #939598;
      }

      .e {
        fill: #39b54a;
      }
    </style>
  </defs>
  <g id="a" data-name="Layer 1">
    <path class="c" d="M6.86,28.15c-.68,0-1.27-.23-1.75-.68-.48-.45-.72-1.05-.72-1.79v-5.51c0-.14-.11-.25-.25-.25H.25c-.14,0-.25-.11-.25-.25v-11.2c0-.14.11-.25.25-.25h3.88c.14,0,.25-.11.25-.25V2.45c0-.62.19-1.15.58-1.59C5.49.26,6.3,0,7.09,0h54.06c.74,0,1.34.24,1.79.72.45.48.68,1.06.68,1.75v23.2c0,.77-.23,1.38-.68,1.82-.45.44-1.05.66-1.79.66,0,0-54.3,0-54.3,0ZM6.31,26.15h55.3V2.02H6.31v24.13Z"/>
  </g>
  <g id="b" data-name="Layer 2">
    <rect class="d" x="8.75" y="3.09" width="11" height="22"/>
    <rect class="e" x="21.6" y="3.09" width="11" height="22"/>
    <rect class="e" x="34.58" y="3.09" width="11" height="22"/>
    <rect class="e" x="47.43" y="3.08" width="11" height="22"/>
  </g>
</svg>